# xmcd
#
# Track frame offsets: 
#        150
#        33112
#        47572
#        77435
#        92097
#        108990
#        126322
#        145545
#        177892
#        196962
#
# Disc length: 2886 seconds
#
# Revision: 2
# Processed by: cddbd v1.5PL3 Copyright (c) Steve Scherf et al.
# Submitted via: ExactAudioCopy v0.95a4
#
DISCID=750b440a
DTITLE=Billy Boy Arnold - Ten Million Dollars
DYEAR=1995
DGENRE=Blues
TTITLE0=Ten Million Dollars
TTITLE1=I Wish You Would
TTITLE2=Trust My Baby
TTITLE3=My Babe
TTITLE4=Just a Little bit
TTITLE5=Going Home
TTITLE6=Yellow Roses From Texas (Just Love Won't Do)
TTITLE7=Last Night
TTITLE8=I Done Got Over It
TTITLE9=Sugar Momma
EXTD=
EXTT0=
EXTT1=
EXTT2=
EXTT3=
EXTT4=
EXTT5=
EXTT6=
EXTT7=
EXTT8=
EXTT9=
PLAYORDER=
